<?xml version="1.0" standalone="no"?>
<!DOCTYPE svg PUBLIC "-//W3C//DTD SVG 20010904//EN"
 "http://www.w3.org/TR/2001/REC-SVG-20010904/DTD/svg10.dtd">
<svg version="1.0" xmlns="http://www.w3.org/2000/svg"
 width="512.000000pt" height="512.000000pt" viewBox="0 0 512.000000 512.000000"
 preserveAspectRatio="xMidYMid meet">

<g transform="translate(0.000000,512.000000) scale(0.100000,-0.100000)"
fill="#000000" stroke="none">
<path d="M3482 4758 c-5 -7 -18 -40 -27 -73 -28 -103 -66 -215 -73 -215 -3 0
-15 9 -27 20 -14 13 -105 46 -236 85 l-213 65 -261 0 -260 0 -245 -66 -245
-65 -100 -100 -100 -99 -34 70 c-119 248 -430 337 -664 188 -66 -42 -124 -111
-165 -196 -45 -95 -53 -206 -23 -327 11 -44 17 -83 13 -86 -4 -4 -24 -12 -45
-19 -72 -23 -127 -89 -142 -170 -3 -22 15 -180 50 -413 30 -208 55 -380 55
-382 0 -3 -53 -5 -119 -5 -87 0 -122 -4 -130 -13 -19 -24 -301 -875 -301 -910
0 -135 99 -245 237 -263 l52 -6 3 -577 3 -576 29 -60 c52 -105 145 -178 258
-205 28 -6 661 -10 1753 -10 1846 0 1774 -2 1868 53 62 37 132 117 159 185 22
56 23 65 26 524 2 334 0 473 -8 488 -8 15 -19 20 -38 18 l-27 -3 -5 -480 c-5
-461 -6 -482 -26 -526 -31 -66 -78 -114 -142 -146 l-57 -28 -855 0 -855 0 -3
1119 c-1 616 0 1117 3 1114 4 -3 58 -158 121 -344 63 -186 123 -352 134 -369
33 -53 103 -113 165 -142 l60 -28 810 0 810 0 55 31 c67 38 114 103 131 180
l13 56 -143 432 c-79 237 -150 443 -158 459 -13 25 -18 27 -79 27 l-66 0 6 28
c3 15 53 295 111 622 57 327 117 643 132 702 25 97 26 109 12 123 -12 12
-1147 325 -1179 325 -4 0 -12 -6 -18 -12z m708 -253 c223 -60 407 -110 409
-111 2 -2 -2 -24 -9 -49 -10 -35 -17 -44 -29 -40 -60 19 -914 245 -926 245
-18 0 -37 -34 -29 -54 7 -18 21 -23 218 -76 82 -22 151 -42 154 -45 5 -5 -85
-359 -97 -382 -4 -8 -84 65 -219 200 l-212 212 20 53 c11 29 30 88 41 130 12
42 23 80 25 84 2 3 59 -9 127 -27 67 -18 304 -81 527 -140z m-2779 22 c97 -47
178 -144 207 -248 10 -36 9 -38 -42 -87 l-51 -49 -304 -81 c-168 -45 -307 -79
-309 -77 -13 13 -42 148 -42 196 0 161 111 316 261 364 72 24 211 15 280 -18z
m1459 -41 c0 -82 -37 -157 -98 -201 -35 -24 -55 -30 -112 -33 -60 -4 -75 -1
-119 23 -81 45 -121 118 -121 222 l0 53 225 0 225 0 0 -64z m-528 -18 c8 -128
63 -214 170 -268 154 -76 341 -8 411 149 12 26 22 77 25 119 3 39 5 72 6 72 0
0 73 -22 161 -48 l160 -48 3 -737 2 -737 -1229 0 -1229 0 -5 33 c-4 17 -29
195 -58 394 l-51 362 18 38 c14 27 33 45 67 62 28 14 52 20 57 15 4 -5 25 -71
45 -147 48 -183 49 -187 79 -187 46 0 46 24 1 195 -24 88 -40 163 -37 166 4 3
106 32 227 64 121 32 227 60 235 63 8 3 -2 -13 -22 -36 -21 -23 -38 -47 -38
-54 0 -19 393 -408 418 -415 19 -4 33 4 68 38 l44 43 2 -214 c3 -190 5 -214
21 -224 12 -8 22 -8 35 0 16 10 17 54 20 642 l2 632 23 5 c12 3 94 26 182 50
88 24 165 44 171 44 7 1 13 -27 16 -71z m-524 -795 l-53 -53 -162 162 -163
163 212 212 213 213 3 -322 2 -322 -52 -53z m1810 110 l-163 -163 -52 52 -53
52 0 326 0 325 215 -215 215 -215 -162 -162z m692 503 l235 -63 -3 -29 c-2
-16 -50 -295 -108 -620 -57 -325 -104 -594 -104 -598 0 -3 -126 -6 -280 -6
l-280 0 5 23 c3 12 41 229 85 482 44 253 85 479 91 501 l11 42 53 -2 c70 -1
98 24 126 115 27 88 23 123 -13 127 -31 4 -33 0 -65 -103 -18 -60 -34 -74 -62
-56 -14 9 -10 32 41 219 5 17 14 32 21 32 7 0 118 -29 247 -64z m-491 -443
c-64 -167 -249 -688 -249 -703 0 -11 9 -24 19 -30 34 -18 56 18 122 202 34 98
64 176 66 174 3 -3 -64 -398 -83 -488 l-6 -28 -169 0 -169 0 0 315 c0 173 2
315 3 315 2 0 23 -18 46 -40 23 -22 49 -40 58 -40 9 0 96 79 192 175 97 96
177 175 178 175 1 0 -2 -12 -8 -27z m-1349 -2183 l0 -1231 -852 3 -853 3 -46
23 c-65 32 -125 96 -149 159 -19 51 -20 79 -20 608 l0 554 718 3 717 3 57 23
c83 34 151 99 192 186 19 39 68 176 111 304 82 248 84 267 27 260 -23 -3 -32
-23 -116 -269 -51 -147 -104 -285 -118 -306 -34 -52 -107 -99 -172 -113 -35
-7 -299 -10 -817 -8 l-765 3 -41 27 c-45 30 -83 96 -83 145 0 23 210 664 275
841 3 9 207 12 970 12 l965 0 0 -1230z m2163 805 c137 -414 139 -421 127 -465
-15 -56 -72 -114 -125 -129 -54 -15 -1504 -15 -1574 0 -64 13 -133 58 -170
109 -21 29 -71 166 -175 476 l-144 434 961 -2 961 -3 139 -420z"/>
</g>
</svg>
