<?xml version="1.0" standalone="no"?>
<!DOCTYPE svg PUBLIC "-//W3C//DTD SVG 20010904//EN"
 "http://www.w3.org/TR/2001/REC-SVG-20010904/DTD/svg10.dtd">
<svg version="1.0" xmlns="http://www.w3.org/2000/svg"
 width="512.000000pt" height="512.000000pt" viewBox="0 0 512.000000 512.000000"
 preserveAspectRatio="xMidYMid meet">

<g transform="translate(0.000000,512.000000) scale(0.100000,-0.100000)"
fill="#000000" stroke="none">
<path d="M3521 4976 c-8 -9 -10 -159 -9 -537 l3 -524 23 -3 c53 -8 52 -21 52
537 0 389 -3 520 -12 529 -16 16 -43 15 -57 -2z"/>
<path d="M2971 4476 c-8 -9 -11 -94 -9 -287 l3 -274 27 -3 c46 -5 49 15 46
299 -3 218 -5 261 -18 269 -21 13 -36 12 -49 -4z"/>
<path d="M4076 4474 c-14 -14 -16 -70 -16 -469 0 -399 2 -455 16 -469 19 -19
36 -20 52 -4 17 17 17 929 0 946 -16 16 -33 15 -52 -4z"/>
<path d="M2581 3765 c-194 -44 -367 -180 -456 -360 -52 -105 -68 -188 -63
-325 7 -183 62 -311 188 -440 75 -76 160 -130 269 -168 68 -24 89 -27 211 -26
119 0 144 3 208 26 107 39 177 83 263 169 94 94 159 216 185 348 63 320 -137
656 -449 757 -102 33 -258 41 -356 19z m331 -94 c88 -28 207 -109 265 -179 83
-102 143 -261 143 -382 0 -121 -67 -297 -150 -392 -55 -64 -176 -143 -258
-169 -92 -29 -228 -36 -314 -15 -111 26 -203 79 -289 165 -120 121 -169 239
-169 413 0 173 61 313 189 431 70 64 172 120 259 142 80 20 237 14 324 -14z"/>
<path d="M2703 3469 c-7 -7 -13 -21 -13 -30 0 -24 19 -35 72 -42 130 -17 231
-120 253 -257 8 -52 20 -70 46 -70 45 0 45 94 0 196 -29 66 -111 147 -179 177
-70 32 -161 45 -179 26z"/>
<path d="M4015 3076 c-293 -57 -505 -281 -545 -575 -28 -206 41 -404 195 -557
133 -133 281 -194 470 -194 189 0 336 61 471 195 131 130 194 282 195 465 1
204 -67 361 -220 502 -150 139 -369 202 -566 164z m275 -91 c148 -39 303 -164
367 -295 117 -239 75 -508 -107 -690 -114 -114 -252 -170 -415 -170 -48 0
-115 7 -149 16 -199 51 -362 213 -422 419 -21 73 -23 209 -5 285 54 224 250
410 474 450 65 11 184 4 257 -15z"/>
<path d="M4109 2769 c-30 -30 -10 -56 49 -64 107 -16 195 -78 238 -170 13 -27
24 -66 24 -86 0 -46 19 -72 51 -67 21 3 24 9 27 51 8 130 -94 275 -231 325
-82 30 -135 34 -158 11z"/>
<path d="M1822 2300 c-76 -14 -189 -60 -257 -106 -32 -21 -113 -71 -179 -109
-101 -59 -121 -74 -121 -94 0 -44 30 -49 88 -17 58 32 203 119 287 172 89 56
177 79 305 79 137 0 225 -26 332 -98 90 -60 144 -121 203 -228 l45 -82 515
-138 c283 -75 534 -147 557 -159 167 -87 162 -339 -7 -425 -84 -43 -115 -38
-611 95 -246 66 -454 117 -463 114 -22 -8 -31 -44 -15 -59 8 -8 268 -82 577
-165 l564 -151 467 270 c321 186 483 274 518 282 127 30 257 -59 285 -194 15
-71 -8 -149 -59 -205 -28 -30 -186 -126 -593 -360 -306 -176 -575 -325 -599
-332 -23 -6 -57 -8 -74 -5 -30 6 -407 107 -1452 386 -225 60 -415 111 -421
114 -7 2 -32 -7 -57 -21 l-46 -24 -34 58 c-19 31 -162 278 -317 547 -155 270
-293 505 -307 523 -33 44 -78 65 -139 65 -49 0 -68 -9 -301 -143 -136 -79
-271 -158 -299 -175 -61 -39 -89 -89 -88 -160 0 -47 20 -85 358 -670 197 -341
371 -641 388 -667 35 -56 93 -88 160 -88 40 0 75 18 313 154 148 84 284 166
303 181 39 31 71 95 72 142 0 17 -16 61 -34 98 l-35 66 32 15 c31 15 58 8 932
-226 495 -133 924 -246 953 -251 85 -16 146 6 359 129 103 59 352 203 553 318
409 235 461 274 496 374 70 204 -61 411 -276 435 -40 5 -71 2 -115 -13 -35
-11 -247 -127 -503 -275 -244 -142 -446 -257 -449 -257 -3 0 12 13 34 29 148
107 177 316 63 460 -71 90 -46 81 -818 287 l-333 89 -36 67 c-74 141 -222 266
-380 320 -94 33 -245 45 -341 28z m-968 -354 c29 -12 71 -81 398 -647 201
-349 371 -645 378 -658 16 -31 5 -83 -23 -108 -12 -11 -141 -88 -287 -171
-284 -163 -307 -171 -354 -130 -14 13 -191 309 -393 658 -398 689 -395 683
-343 734 23 22 507 307 555 326 28 12 31 12 69 -4z"/>
</g>
</svg>
