<?xml version="1.0" standalone="no"?>
<!DOCTYPE svg PUBLIC "-//W3C//DTD SVG 20010904//EN"
 "http://www.w3.org/TR/2001/REC-SVG-20010904/DTD/svg10.dtd">
<svg version="1.0" xmlns="http://www.w3.org/2000/svg"
 width="128.000000pt" height="128.000000pt" viewBox="0 0 128.000000 128.000000"
 preserveAspectRatio="xMidYMid meet">

<g transform="translate(0.000000,128.000000) scale(0.100000,-0.100000)"
fill="#000000" stroke="none">
<path d="M450 1238 c-63 -102 -72 -275 -25 -513 49 -256 64 -359 77 -530 6
-94 17 -173 22 -177 6 -4 32 -8 59 -8 l47 0 0 364 c0 233 4 367 10 371 7 4 10
-120 10 -364 l0 -371 48 0 c26 0 53 4 60 8 8 6 14 48 17 128 7 133 32 323 70
519 56 290 55 432 -3 548 l-27 52 -173 3 -172 2 -20 -32z m90 -6 c0 -14 -9
-19 -40 -20 -42 -3 -43 -2 -34 22 9 24 74 22 74 -2z m90 -2 c0 -16 -7 -20 -35
-20 -28 0 -35 4 -35 20 0 16 7 20 35 20 28 0 35 -4 35 -20z m90 0 c0 -11 -6
-20 -14 -20 -7 0 -16 9 -19 20 -4 15 0 20 14 20 12 0 19 -7 19 -20z m90 16 c0
-2 3 -11 6 -20 5 -12 0 -16 -19 -16 -36 0 -57 10 -57 26 0 9 12 14 35 14 19 0
35 -2 35 -4z m-310 -75 c-10 -20 -48 -51 -62 -51 -11 0 -10 13 2 44 7 20 16
26 40 26 27 0 30 -2 20 -19z m126 -188 c-3 -115 -9 -328 -12 -475 -3 -148 -9
-266 -14 -263 -4 3 -10 -4 -13 -14 -3 -14 -1 -18 9 -14 9 3 14 -2 14 -17 0
-18 -3 -20 -13 -11 -8 6 -17 8 -20 4 -14 -13 -7 -61 11 -74 14 -11 15 -11 5 1
-7 8 -13 27 -13 43 0 25 2 28 15 17 11 -9 14 -31 13 -81 -1 -38 -6 -69 -10
-69 -5 0 -8 6 -7 13 3 24 -3 62 -8 49 -2 -6 -10 -9 -15 -6 -7 4 -8 2 -4 -4 3
-6 -2 -15 -11 -21 -10 -5 -14 -13 -10 -17 4 -4 14 1 22 12 14 19 14 19 15 -2
0 -16 -6 -21 -22 -20 -22 1 -23 6 -35 158 -12 156 -31 284 -77 533 -30 159
-41 268 -32 327 6 39 11 46 41 57 19 6 44 25 55 42 12 16 26 27 31 24 5 -4 9
-1 9 4 0 6 18 11 41 11 l41 0 -6 -207z m64 131 c0 -73 -11 -114 -30 -114 -6 0
-10 41 -10 95 0 88 1 95 20 95 18 0 20 -7 20 -76z m40 66 c0 -5 6 -7 13 -4 8
3 18 -6 25 -21 9 -19 60 -53 88 -60 1 0 5 -14 8 -31 6 -24 3 -33 -10 -38 -9
-3 -24 -1 -33 6 -14 12 -15 11 -1 -6 13 -16 12 -20 -7 -36 l-22 -17 21 -21
c27 -26 18 -56 -14 -47 -19 6 -21 5 -11 -6 10 -10 10 -16 0 -28 -10 -14 -10
-14 4 -3 15 11 20 9 38 -14 22 -28 29 -70 10 -59 -6 4 -8 13 -5 21 3 8 0 11
-8 8 -7 -3 -19 2 -26 11 -7 8 -17 15 -23 15 -6 0 -1 -11 12 -23 19 -21 20 -25
6 -37 -12 -10 -18 -10 -30 0 -9 8 -15 9 -15 2 0 -6 5 -14 10 -17 8 -5 7 -12
-2 -23 -11 -15 -11 -15 3 -5 13 11 19 10 33 -6 20 -22 12 -46 -11 -37 -8 3
-11 1 -8 -5 4 -5 1 -18 -7 -27 -12 -15 -11 -16 5 -3 16 12 20 12 34 -2 18 -17
10 -52 -10 -44 -7 3 -13 -3 -13 -13 0 -10 6 -16 13 -13 8 3 13 -3 13 -14 0
-28 -10 -35 -29 -21 -13 11 -13 9 1 -7 15 -19 15 -30 -4 -172 -19 -134 -23
-151 -37 -143 -13 6 -17 4 -17 -9 0 -10 7 -18 16 -17 9 1 15 -7 15 -19 0 -11
-6 -19 -13 -17 -10 2 -10 -2 -2 -17 13 -26 13 -54 -1 -46 -6 4 -8 13 -5 21 3
8 0 11 -10 7 -19 -7 -18 -17 6 -38 22 -20 27 -49 8 -42 -7 2 -12 9 -11 14 1 5
-7 9 -17 10 -12 1 -17 -3 -14 -12 3 -7 0 -16 -5 -20 -6 -3 -8 -11 -5 -17 4 -7
2 -8 -4 -4 -8 4 -11 108 -12 339 0 184 -5 371 -10 418 -15 125 -13 189 4 189
31 0 46 42 46 127 0 49 4 83 10 83 6 0 10 -4 10 -10z m115 -21 c4 -17 4 -33 1
-36 -8 -8 -54 24 -66 47 -10 18 -8 20 24 20 30 0 35 -4 41 -31z m25 -155 c0
-9 -5 -12 -12 -8 -10 6 -10 4 0 -8 10 -12 11 -33 6 -78 l-7 -62 -21 22 c-21
21 -21 21 -1 36 19 14 19 15 -3 36 l-22 22 27 28 c31 33 33 33 33 12z m-28
-246 c-7 -27 -17 -30 -37 -8 -14 16 -15 23 -6 34 17 20 50 0 43 -26z m-12 -68
c0 -21 -15 -27 -25 -10 -7 12 2 30 16 30 5 0 9 -9 9 -20z m-108 -645 c0 -5 -5
-11 -11 -13 -6 -2 -11 4 -11 13 0 9 5 15 11 13 6 -2 11 -8 11 -13z"/>
<path d="M523 875 c0 -44 2 -61 4 -37 2 23 2 59 0 80 -2 20 -4 1 -4 -43z"/>
<path d="M543 605 c0 -44 2 -61 4 -37 2 23 2 59 0 80 -2 20 -4 1 -4 -43z"/>
<path d="M732 490 c0 -19 2 -27 5 -17 2 9 2 25 0 35 -3 9 -5 1 -5 -18z"/>
<path d="M703 385 c0 -44 2 -61 4 -37 2 23 2 59 0 80 -2 20 -4 1 -4 -43z"/>
</g>
</svg>
