<?xml version="1.0" standalone="no"?>
<!DOCTYPE svg PUBLIC "-//W3C//DTD SVG 20010904//EN"
 "http://www.w3.org/TR/2001/REC-SVG-20010904/DTD/svg10.dtd">
<svg version="1.0" xmlns="http://www.w3.org/2000/svg"
 width="128.000000pt" height="128.000000pt" viewBox="0 0 128.000000 128.000000"
 preserveAspectRatio="xMidYMid meet">

<g transform="translate(0.000000,128.000000) scale(0.100000,-0.100000)"
fill="#000000" stroke="none">
<path d="M253 1270 c-13 -5 -32 -24 -43 -42 -19 -32 -20 -50 -20 -436 0 -338
2 -408 15 -432 27 -52 49 -60 171 -60 l111 0 5 -63 c9 -107 66 -185 159 -221
37 -14 77 -16 239 -14 l195 3 0 310 c0 276 -2 314 -18 345 -9 19 -67 97 -127
173 l-110 138 0 121 0 120 -34 34 -34 34 -243 -1 c-134 0 -254 -4 -266 -9z
m297 -240 c0 -175 -2 -210 -14 -210 -24 0 -73 -48 -79 -77 -7 -37 7 -69 54
-125 l39 -47 0 -115 0 -116 -134 0 c-117 0 -137 2 -157 19 l-24 19 0 412 0
412 24 19 c20 17 40 19 157 19 l134 0 0 -210z m110 -31 l0 -241 -29 24 -30 23
0 218 -1 217 30 0 30 0 0 -241z m104 220 l26 -20 0 -292 0 -292 -45 47 -45 47
0 265 c0 253 1 266 19 266 10 0 30 -9 45 -21z m155 -428 c136 -168 126 -130
126 -461 l0 -285 -163 -3 c-95 -1 -180 2 -203 8 -85 23 -149 116 -149 217 l0
33 70 0 69 0 19 -43 c34 -77 143 -167 163 -135 14 21 12 23 -38 55 -67 41
-101 106 -110 209 l-6 79 -99 116 c-107 126 -118 155 -73 185 13 8 32 13 42
10 10 -3 83 -76 162 -161 80 -85 147 -155 151 -155 3 0 11 5 18 12 9 9 2 22
-28 54 l-40 44 0 160 c0 88 2 160 5 160 2 0 40 -45 84 -99z m-259 -400 c0 -50
-1 -51 -30 -51 l-30 0 0 85 0 86 30 -34 c25 -29 30 -43 30 -86z"/>
<path d="M300 1035 c0 -128 1 -135 20 -135 19 0 20 7 20 135 0 128 -1 135 -20
135 -19 0 -20 -7 -20 -135z"/>
<path d="M410 1085 c0 -78 2 -85 20 -85 18 0 20 7 20 85 0 78 -2 85 -20 85
-18 0 -20 -7 -20 -85z"/>
<path d="M313 573 c-9 -3 -13 -30 -13 -84 l0 -79 85 0 85 0 0 79 c0 63 -3 80
-16 85 -18 7 -123 7 -141 -1z m117 -83 l0 -40 -45 0 -45 0 0 40 0 40 45 0 45
0 0 -40z"/>
</g>
</svg>
