<?xml version="1.0" standalone="no"?>
<!DOCTYPE svg PUBLIC "-//W3C//DTD SVG 20010904//EN"
 "http://www.w3.org/TR/2001/REC-SVG-20010904/DTD/svg10.dtd">
<svg version="1.0" xmlns="http://www.w3.org/2000/svg"
 width="128.000000pt" height="128.000000pt" viewBox="0 0 128.000000 128.000000"
 preserveAspectRatio="xMidYMid meet">

<g transform="translate(0.000000,128.000000) scale(0.100000,-0.100000)"
fill="#000000" stroke="none">
<path d="M464 1185 c-13 -31 -24 -60 -24 -65 0 -19 89 -200 99 -200 5 0 23 11
39 25 17 14 33 25 36 25 3 0 6 -163 6 -362 l0 -362 -27 -84 -28 -83 -34 6
c-48 9 -101 38 -133 72 -21 22 -33 54 -53 136 -24 103 -25 119 -25 431 l0 324
38 12 c46 15 54 23 46 43 -7 19 -18 16 -147 -46 l-89 -41 -64 -128 -64 -128 0
-170 0 -170 95 -190 c52 -105 98 -190 102 -190 4 0 35 18 69 40 l62 41 47 -30
c50 -32 143 -58 168 -48 9 3 23 31 33 61 10 31 21 56 24 56 3 0 14 -25 24 -56
10 -30 24 -58 33 -61 25 -10 118 16 165 46 60 38 98 90 123 168 l21 64 27
-133 c15 -73 31 -136 36 -141 9 -9 148 26 163 41 13 13 -87 899 -104 919 -15
18 -98 57 -211 98 -77 28 -79 29 -102 82 l-24 53 -151 0 -151 0 -25 -55z m256
-15 c-20 -27 -26 -30 -80 -30 -54 0 -60 3 -80 30 l-21 30 101 0 101 0 -21 -30z
m-155 -77 l47 -67 -26 -23 c-15 -13 -30 -23 -35 -23 -4 0 -21 32 -39 71 -26
58 -29 74 -20 94 6 14 14 22 19 19 4 -2 29 -34 54 -71z m203 -42 c-18 -39 -35
-71 -39 -71 -5 0 -20 11 -35 23 l-27 24 24 34 c14 19 38 51 54 73 l28 39 13
-25 c12 -23 10 -33 -18 -97z m-110 29 c-7 -11 -15 -20 -18 -20 -3 0 -11 9 -18
20 -11 18 -10 20 18 20 28 0 29 -2 18 -20z m244 -11 l59 -22 -3 -391 c-3 -379
-4 -392 -25 -431 -38 -72 -110 -126 -184 -140 l-34 -6 -28 83 -27 84 0 362 c0
199 3 362 6 362 3 0 19 -11 36 -25 16 -14 34 -25 39 -25 6 0 28 38 50 85 21
47 42 85 45 85 4 0 33 -10 66 -21z m-623 -281 c-1 -242 -1 -243 -18 -191 -19
60 -25 68 -45 60 -12 -5 -7 -28 25 -133 39 -125 69 -243 69 -268 0 -7 -18 -22
-40 -35 -26 -14 -37 -27 -33 -36 7 -19 24 -19 49 0 28 21 41 18 47 -10 4 -22
-3 -31 -40 -56 -24 -17 -46 -29 -48 -27 -1 1 -39 76 -84 165 l-81 163 0 172 1
173 57 110 c48 93 63 113 97 132 22 13 41 23 43 23 1 0 2 -109 1 -242z m819
197 c5 -5 90 -779 86 -786 -2 -4 -17 -9 -34 -12 -21 -5 -30 -12 -30 -27 0 -11
1 -20 3 -20 1 0 16 4 34 9 30 9 43 1 43 -28 0 -8 -99 -36 -104 -30 -2 2 -24
105 -50 229 l-46 225 0 242 0 242 47 -20 c26 -11 49 -22 51 -24z"/>
<path d="M727 794 c-4 -4 -7 -43 -7 -85 l0 -79 51 -25 51 -26 46 23 47 23 0
85 0 85 -90 3 c-50 1 -94 0 -98 -4z m153 -89 c0 -51 -2 -56 -30 -70 -28 -15
-33 -14 -60 2 -27 16 -30 22 -30 70 l0 53 60 0 60 0 0 -55z"/>
<path d="M540 860 c0 -13 7 -20 20 -20 13 0 20 7 20 20 0 13 -7 20 -20 20 -13
0 -20 -7 -20 -20z"/>
<path d="M540 660 c0 -13 7 -20 20 -20 13 0 20 7 20 20 0 13 -7 20 -20 20 -13
0 -20 -7 -20 -20z"/>
<path d="M540 460 c0 -13 7 -20 20 -20 13 0 20 7 20 20 0 13 -7 20 -20 20 -13
0 -20 -7 -20 -20z"/>
<path d="M540 260 c0 -13 7 -20 20 -20 13 0 20 7 20 20 0 13 -7 20 -20 20 -13
0 -20 -7 -20 -20z"/>
</g>
</svg>
