<?xml version="1.0" standalone="no"?>
<!DOCTYPE svg PUBLIC "-//W3C//DTD SVG 20010904//EN"
 "http://www.w3.org/TR/2001/REC-SVG-20010904/DTD/svg10.dtd">
<svg version="1.0" xmlns="http://www.w3.org/2000/svg"
 width="512.000000pt" height="512.000000pt" viewBox="0 0 512.000000 512.000000"
 preserveAspectRatio="xMidYMid meet">

<g transform="translate(0.000000,512.000000) scale(0.100000,-0.100000)"
fill="#000000" stroke="none">
<path d="M800 4281 c-105 -32 -199 -147 -200 -243 l0 -38 -184 0 c-101 0 -191
-3 -200 -6 -21 -8 -21 -60 0 -68 9 -3 483 -6 1054 -6 931 0 1040 2 1054 16 19
18 19 20 6 45 -10 19 -30 19 -830 19 l-820 0 0 30 c0 37 29 97 62 127 59 56
-11 53 1368 53 1238 0 1272 0 1309 -19 57 -30 98 -82 111 -143 8 -38 10 -346
8 -1107 l-3 -1054 -57 -13 c-32 -8 -76 -23 -98 -34 -39 -20 -52 -20 -787 -18
l-748 3 -65 30 c-60 28 -73 30 -180 29 -104 0 -122 -3 -185 -29 l-70 -29 -332
-3 -333 -4 0 896 c0 599 -3 903 -10 916 -12 21 -40 25 -58 7 -17 -17 -17
-2093 0 -2149 16 -55 73 -118 132 -145 46 -21 65 -24 187 -24 l135 0 12 -63
c45 -243 269 -427 520 -427 253 0 462 169 518 420 l16 70 471 -2 470 -3 13
-65 c49 -239 269 -420 511 -420 185 0 358 92 453 239 38 60 79 173 80 219 l0
32 298 0 c291 0 298 1 348 24 58 27 120 94 135 146 7 23 9 243 7 640 l-3 605
-143 449 c-78 246 -140 452 -137 456 2 4 18 10 34 13 49 10 109 72 126 130 23
78 6 145 -52 199 -61 59 -56 58 -616 58 l-513 0 -13 47 c-21 80 -71 137 -156
179 l-50 24 -1285 -1 c-707 0 -1296 -4 -1310 -8z m3868 -341 c18 -11 40 -37
48 -56 21 -50 2 -110 -45 -141 l-34 -23 -508 0 -509 0 0 120 0 120 508 0 c491
0 508 -1 540 -20z m22 -763 c142 -456 144 -463 148 -569 l4 -108 -249 0 c-223
0 -252 2 -291 20 -46 21 -88 60 -106 100 -7 17 -13 160 -16 434 -5 375 -6 410
-22 420 -13 8 -23 8 -35 0 -17 -10 -18 -42 -18 -430 0 -413 0 -420 22 -460 34
-63 66 -97 125 -129 l53 -30 268 -3 267 -3 0 -300 0 -299 -175 0 -175 0 0 93
c0 97 17 154 56 189 29 26 89 48 128 48 52 0 66 9 66 41 0 35 -27 44 -100 36
-86 -10 -161 -63 -203 -142 -17 -32 -22 -63 -25 -152 l-4 -113 -268 0 c-264 0
-268 0 -324 25 -32 14 -88 31 -127 37 l-69 12 0 873 0 873 463 0 462 0 145
-463z m-2991 -1378 c201 -46 351 -237 351 -447 0 -67 -31 -172 -69 -230 -94
-146 -238 -220 -413 -210 -73 5 -99 11 -160 40 -98 47 -170 119 -217 217 -35
74 -36 79 -36 192 0 113 1 116 38 191 40 82 125 171 198 208 88 45 213 61 308
39z m2016 -4 c225 -59 370 -277 335 -502 -52 -324 -416 -489 -690 -313 -146
94 -229 278 -201 446 45 265 300 435 556 369z m-2515 -82 c-72 -93 -112 -178
-125 -266 l-7 -47 -130 0 c-148 0 -182 10 -226 68 -25 33 -27 43 -30 154 l-4
118 272 0 272 0 -22 -27z m1985 -31 c-51 -66 -94 -163 -102 -233 l-6 -49 -473
0 -474 0 -5 28 c-19 90 -29 120 -52 166 -14 28 -43 72 -65 99 l-39 47 630 0
631 0 -45 -58z m1655 -52 c0 -126 -9 -153 -67 -197 l-36 -28 -302 -3 -301 -3
-11 64 c-12 74 -49 153 -104 226 l-39 51 430 0 430 0 0 -110z"/>
<path d="M1564 1576 c-13 -33 1 -51 50 -63 85 -21 118 -54 140 -140 10 -41 16
-48 38 -51 35 -4 48 21 39 75 -20 107 -115 193 -214 193 -32 0 -49 -5 -53 -14z"/>
<path d="M3571 1572 c-14 -27 5 -50 47 -58 81 -15 127 -59 140 -135 8 -48 33
-70 60 -53 60 38 -14 200 -112 245 -54 25 -122 25 -135 1z"/>
<path d="M2461 3981 c-14 -26 -4 -50 23 -57 11 -2 68 -4 125 -2 86 2 106 6
115 21 8 12 8 22 0 35 -9 14 -30 17 -132 20 -111 2 -122 1 -131 -17z"/>
<path d="M1008 3423 c-23 -6 -33 -40 -18 -58 10 -13 63 -15 321 -15 l309 0 6
26 c4 15 2 30 -5 37 -9 9 -95 12 -304 14 -161 0 -300 -1 -309 -4z"/>
<path d="M1968 3423 c-23 -6 -33 -40 -18 -58 11 -13 72 -15 391 -15 l379 0 6
26 c4 15 2 30 -5 37 -9 9 -112 12 -374 14 -199 0 -370 -1 -379 -4z"/>
<path d="M1602 2838 c-16 -16 -15 -43 2 -57 9 -8 165 -10 561 -9 509 3 549 4
559 21 8 12 8 22 0 35 -10 16 -50 17 -561 20 -418 2 -552 -1 -561 -10z"/>
</g>
</svg>
