<svg width="573" height="175" viewBox="0 0 573 175" fill="none" xmlns="http://www.w3.org/2000/svg">
<path d="M195.294 154.315C194.565 155.807 192.982 156.695 191.322 156.695H128.875C128.1 156.695 127.522 155.979 127.685 155.221L130.064 144.188C131.403 137.974 132.078 131.636 132.078 125.28V113.263C132.078 111.654 131.596 110.05 130.565 108.816C129.291 107.292 127.466 106.442 125.508 106.442C124.662 106.442 123.852 106.604 123.108 106.897C122.792 107.022 122.421 106.85 122.323 106.524C121.998 105.448 121.413 104.468 120.602 103.668C119.328 102.377 117.552 101.638 115.727 101.638C114.688 101.638 113.701 101.869 112.817 102.284C112.501 102.431 112.144 102.292 112.013 101.97C111.678 101.154 111.185 100.4 110.555 99.7609C109.29 98.497 107.605 97.8017 105.812 97.8017C105.03 97.8017 104.278 97.9356 103.58 98.1823C103.184 98.3221 102.772 98.0301 102.772 97.6107L102.773 87.9626C102.773 86.026 102.18 84.0961 100.922 82.6243C99.1868 80.5956 96.623 79.6039 93.9591 79.9501C90.0421 80.4595 87.2179 83.9929 87.2179 87.9435V119.057L84.9271 114.37C83.6669 111.758 80.9678 110.07 78.0506 110.07C76.993 110.07 75.9589 110.287 74.965 110.719C72.8324 111.663 71.2786 113.473 70.6617 115.759C70.1538 117.642 70.467 119.654 71.3445 121.396L77.1701 132.96C79.0122 136.615 81.2312 140.374 84.1528 144.791C86.7561 148.726 87.7887 152.661 88.1964 155.291C88.3113 156.032 87.7412 156.695 86.9917 156.695H20.4537C18.7924 156.695 17.2079 155.808 16.4767 154.316C15.6636 152.656 15.9278 150.845 17.161 149.509L98.2251 61.7282C100.221 59.5729 102.941 58.3851 105.885 58.3851C108.829 58.3851 111.549 59.5729 113.544 61.7275L194.608 149.511C195.843 150.844 196.106 152.655 195.294 154.315ZM197.311 147.015L116.243 59.2318C114.232 57.0575 111.581 55.5974 108.713 55.0112C108.143 54.8948 107.75 54.3693 107.75 53.7882V47.6391C107.75 44.4145 106.412 41.3341 104.056 39.1327L97.6747 33.1709C95.2947 30.9468 93.9437 27.8357 93.9437 24.5789V23.8668C93.9437 18.6603 97.1485 13.8344 102.106 12.244C107.507 10.511 113.17 12.8874 115.87 17.5193L116.728 18.994C117.706 20.6722 119.227 22.0269 121.088 22.5853C123.041 23.17 125.096 22.9417 126.854 21.9405C127.628 21.4992 128.071 20.5756 127.79 19.7303C127.404 18.5659 126.083 18.1216 125.098 18.7093C124.252 19.2128 123.258 19.3534 122.306 19.1075C121.351 18.8601 120.553 18.2556 120.057 17.4029L119.272 16.0571C116.576 11.428 111.783 8.26271 106.431 8.01681C97.5891 7.60989 90.2668 14.6855 90.2668 23.4393V24.5781C90.2668 28.8537 92.0401 32.9382 95.1652 35.8576L101.547 41.8208C103.158 43.3262 104.073 45.4326 104.073 47.6369L104.072 53.7743C104.072 54.3584 103.675 54.8853 103.103 55.0002C100.216 55.5813 97.5481 57.0465 95.526 59.2326L14.4612 147.014C12.3307 149.318 11.757 152.518 12.9411 155.412C14.1985 158.485 17.3338 160.372 20.6535 160.372H90.2946C91.2797 160.372 92.0899 159.595 92.1316 158.61C92.1448 158.287 92.4031 150.596 87.2193 142.762C84.379 138.469 82.2295 134.828 80.4533 131.305L74.5596 119.605C74.1695 118.83 73.9829 117.948 74.13 117.094C74.3671 115.721 75.2285 114.624 76.4419 114.086C78.3814 113.241 80.727 114.125 81.6198 115.978L85.0852 123.067C85.7841 124.513 87.466 125.192 89.0234 124.551C90.19 124.07 90.8955 122.865 90.8955 121.603V87.8923C90.8955 85.7501 92.4339 83.8048 94.5643 83.5824C96.0807 83.4235 97.5269 84.0939 98.411 85.3849C98.8874 86.0802 99.0953 86.927 99.0953 87.7701V104.506V115.261C99.0953 116.276 99.9186 117.1 100.934 117.1C101.949 117.1 102.772 116.276 102.772 115.261V104.679C102.772 103.119 103.876 101.691 105.424 101.502C106.379 101.386 107.298 101.704 107.946 102.354C108.514 102.928 108.84 103.712 108.84 104.506V108.526V115.261C108.84 116.276 109.663 117.1 110.678 117.1C111.694 117.1 112.517 116.276 112.517 115.261V108.667C112.517 107.595 112.979 106.539 113.854 105.92C115.22 104.955 116.945 105.197 118.002 106.268C118.605 106.864 118.938 107.666 118.938 108.526V113.024V115.261C118.938 116.276 119.762 117.1 120.777 117.1C121.792 117.1 122.615 116.276 122.615 115.261V113.168C122.615 111.679 123.67 110.318 125.148 110.141C126.053 110.033 126.924 110.336 127.554 110.966C128.101 111.512 128.401 112.244 128.401 113.024V125.265C128.401 131.366 127.754 137.45 126.468 143.414L123.294 158.145C123.178 158.689 123.312 159.256 123.662 159.688C124.011 160.121 124.536 160.372 125.092 160.372H191.121C194.439 160.372 197.574 158.485 198.83 155.413C200.013 152.519 199.439 149.318 197.311 147.015Z" fill="#111111"/>
<path d="M251.156 51.6499C253.248 55.4739 256.391 58.6179 260.215 60.7099C256.391 62.8006 253.248 65.9446 251.156 69.7686C249.064 65.9446 245.92 62.8006 242.098 60.7099C245.92 58.6179 249.064 55.4739 251.156 51.6499Z" fill="#111111"/>
<path d="M550.363 50.6142C552.455 54.4382 555.599 57.5822 559.422 59.6729C555.599 61.7649 552.455 64.9089 550.363 68.7329C548.273 64.9089 545.129 61.7649 541.305 59.6729C545.129 57.5822 548.273 54.4382 550.363 50.6142Z" fill="#111111"/>
<path d="M191.864 64.7331C196.458 67.9664 200.452 71.9597 203.686 76.5531C206.918 71.9597 210.912 67.9664 215.506 64.7331C210.912 61.4997 206.918 57.5064 203.686 52.9117C200.451 57.5064 196.458 61.4997 191.864 64.7331ZM203.686 86.1851C202.467 86.1851 201.346 85.5197 200.76 84.4504C196.876 77.3491 191.07 71.5411 183.967 67.6571C182.898 67.0731 182.232 65.9517 182.232 64.7331C182.232 63.5144 182.898 62.3931 183.967 61.8091C191.068 57.9251 196.875 52.1171 200.76 45.0144C201.346 43.9464 202.467 43.2811 203.686 43.2811C204.904 43.2811 206.026 43.9464 206.61 45.0157C210.495 52.1171 216.302 57.9251 223.403 61.8091C224.472 62.3931 225.138 63.5144 225.138 64.7331C225.138 65.9517 224.472 67.0731 223.403 67.6571C216.3 71.5411 210.494 77.3491 206.61 84.4504C206.026 85.5197 204.904 86.1851 203.686 86.1851Z" fill="#111111"/>
<path d="M234.962 117.226C234.962 120.466 236.042 123.013 238.203 124.865C240.363 126.64 242.64 127.527 245.032 127.527C247.501 127.527 249.777 126.832 251.861 125.444C254.021 123.977 255.758 123.244 257.069 123.244C259.384 123.244 262.201 125.289 265.519 129.379C267.293 131.617 268.181 133.623 268.181 135.398C268.181 138.33 266.059 141.069 261.815 143.615C257.417 146.702 252.015 148.245 245.611 148.245C238.434 148.245 231.528 145.66 224.892 140.49C221.729 138.021 219.144 134.742 217.137 130.652C215.131 126.485 214.128 121.933 214.128 116.994C214.128 111.979 215.131 107.464 217.137 103.452C219.144 99.3623 221.729 96.0829 224.892 93.6137C231.297 88.5209 238.126 85.9745 245.379 85.9745C248.311 85.9745 251.166 86.3989 253.944 87.2477C256.722 88.0193 258.767 88.791 260.079 89.5626L261.931 90.7201C263.32 91.646 264.4 92.3791 265.171 92.9192C267.178 94.4625 268.181 96.2372 268.181 98.2435C268.181 100.173 267.371 102.372 265.75 104.841C262.972 109.085 260.31 111.207 257.764 111.207C256.298 111.207 254.214 110.358 251.514 108.661C250.125 107.349 248.118 106.693 245.495 106.693C242.948 106.693 240.556 107.619 238.319 109.471C236.081 111.323 234.962 113.908 234.962 117.226ZM275.658 68.1498C275.658 66.3751 275.697 65.0633 275.774 64.2145C275.928 63.2885 276.275 62.2468 276.816 61.0894C277.896 59.006 280.905 57.9643 285.844 57.9643C290.551 57.9643 293.483 59.006 294.64 61.0894C295.258 62.2468 295.605 63.2885 295.682 64.2145C295.836 65.1405 295.913 66.4908 295.913 68.2656V121.855C295.913 124.633 296.145 126.408 296.608 127.18C297.071 127.874 298.074 128.221 299.617 128.221C301.238 128.221 302.318 128.299 302.858 128.453C303.398 128.53 304.054 128.839 304.826 129.379C306.369 130.382 307.141 133.121 307.141 137.597C307.141 142.458 306.369 145.429 304.826 146.509C302.82 147.898 298.035 148.129 290.473 147.204C284.532 146.432 280.674 144.464 278.899 141.301C276.738 137.52 275.658 131.501 275.658 123.244V68.1498ZM311.788 117.226C311.788 107.966 315.029 100.327 321.51 94.3081C327.992 88.2894 335.4 85.2801 343.733 85.2801C352.067 85.2801 359.436 88.2894 365.84 94.3081C372.245 100.25 375.447 107.85 375.447 117.11C375.447 123.514 373.788 129.224 370.47 134.24C367.152 139.179 363.101 142.844 358.317 145.236C353.61 147.551 348.71 148.708 343.617 148.708C338.525 148.708 333.586 147.474 328.802 145.004C324.018 142.458 319.967 138.754 316.649 133.893C313.408 128.954 311.788 123.399 311.788 117.226ZM335.978 125.559C338.448 127.411 340.955 128.337 343.502 128.337C346.048 128.337 348.595 127.373 351.141 125.444C353.687 123.514 354.96 120.659 354.96 116.878C354.96 113.097 353.764 110.281 351.372 108.429C348.98 106.577 346.395 105.651 343.617 105.651C340.84 105.651 338.255 106.616 335.863 108.545C333.471 110.474 332.274 113.329 332.274 117.11C332.274 120.814 333.509 123.63 335.978 125.559ZM383.388 142.226C381.922 141.301 381.189 139.834 381.189 137.828C381.189 135.822 382.655 132.774 385.588 128.684C386.436 127.373 387.787 126.717 389.639 126.717C391.568 126.717 394.153 127.681 397.394 129.61C400.634 131.462 403.567 132.388 406.19 132.388C410.897 132.388 413.251 131.462 413.251 129.61C413.251 128.144 410.666 127.064 405.496 126.369C400.634 125.675 395.812 123.862 391.028 120.929C388.79 119.541 386.938 117.38 385.472 114.448C384.006 111.438 383.273 107.889 383.273 103.799C383.273 91.6074 391.645 85.5115 408.389 85.5115C413.868 85.5115 419.501 86.8233 425.288 89.4469C427.989 90.6815 429.339 92.2247 429.339 94.0767C429.339 95.9286 428.49 98.2049 426.793 100.906C425.095 103.606 423.359 104.957 421.584 104.957C420.658 104.957 418.922 104.378 416.376 103.221C413.907 102.063 411.206 101.484 408.274 101.484C403.721 101.484 401.445 102.333 401.445 104.031C401.445 106.346 404.068 107.85 409.315 108.545C414.408 109.085 419.347 110.551 424.131 112.943C426.368 114.023 428.22 115.914 429.686 118.615C431.23 121.238 432.001 124.556 432.001 128.569C432.001 132.581 431.23 136.015 429.686 138.87C428.22 141.648 426.137 143.731 423.436 145.12C418.498 147.512 412.286 148.708 404.801 148.708C397.394 148.708 390.256 146.548 383.388 142.226ZM498.353 109.934C498.353 114.641 497.157 118.152 494.765 120.466C492.45 122.704 489.865 123.823 487.01 123.823H459.578C459.578 125.984 460.852 127.797 463.398 129.263C465.944 130.729 468.491 131.462 471.037 131.462C475.513 131.462 479.024 130.999 481.57 130.073L482.843 129.61C484.695 128.762 486.238 128.337 487.473 128.337C489.942 128.337 492.064 130.073 493.839 133.546C494.842 135.629 495.344 137.404 495.344 138.87C495.344 145.737 487.126 149.171 470.69 149.171C464.98 149.171 459.887 148.207 455.412 146.278C451.013 144.271 447.58 141.648 445.11 138.407C440.249 132.157 437.818 125.173 437.818 117.457C437.818 107.735 440.943 99.9796 447.194 94.1924C453.521 88.328 461.392 85.3958 470.806 85.3958C481.531 85.3958 489.402 89.1768 494.418 96.7388C497.041 100.751 498.353 105.15 498.353 109.934ZM473.931 113.29C476.863 113.29 478.329 112.056 478.329 109.586C478.329 107.812 477.635 106.384 476.246 105.304C474.934 104.224 473.005 103.683 470.458 103.683C467.989 103.683 465.52 104.725 463.051 106.809C460.582 108.815 459.347 110.975 459.347 113.29H473.931ZM540.192 107.156L532.669 106.693V122.666C532.669 124.749 532.977 126.254 533.594 127.18C534.289 128.106 535.524 128.569 537.298 128.569C539.15 128.569 540.539 128.646 541.465 128.8C542.468 128.877 543.51 129.224 544.59 129.842C546.365 130.845 547.252 133.43 547.252 137.597C547.252 142.458 546.172 145.429 544.012 146.509C542.854 147.049 541.812 147.396 540.886 147.551C540.038 147.628 538.764 147.667 537.067 147.667C529.042 147.667 522.946 145.853 518.779 142.226C514.612 138.6 512.529 132.465 512.529 123.823V106.693C511.063 106.924 509.481 107.04 507.783 107.04C506.086 107.04 504.658 106.384 503.501 105.072C502.421 103.761 501.88 101.523 501.88 98.3592C501.88 95.1955 502.073 92.9192 502.459 91.5303C502.845 90.0642 503.385 89.0225 504.08 88.4052C505.314 87.402 506.857 86.9005 508.709 86.9005L512.529 87.3635V75.4417C512.529 73.667 512.568 72.3552 512.645 71.5064C512.799 70.6576 513.185 69.7317 513.802 68.7285C514.805 66.7995 517.776 65.8349 522.714 65.8349C527.962 65.8349 531.087 67.2624 532.09 70.1175C532.476 71.3521 532.669 73.3198 532.669 76.0205V87.3635C536.064 87.0548 538.61 86.9005 540.308 86.9005C542.082 86.9005 543.394 86.9776 544.243 87.132C545.169 87.2091 546.211 87.5564 547.368 88.1737C549.374 89.1768 550.377 92.1476 550.377 97.086C550.377 101.947 549.336 104.918 547.252 105.998C546.095 106.539 545.053 106.886 544.127 107.04C543.278 107.117 541.967 107.156 540.192 107.156Z" fill="#111111"/>
<path d="M321.507 62L318.907 61.84V67.36C318.907 68.08 319.014 68.6 319.227 68.92C319.467 69.24 319.894 69.4 320.507 69.4C321.147 69.4 321.627 69.4267 321.947 69.48C322.294 69.5067 322.654 69.6267 323.027 69.84C323.64 70.1867 323.947 71.08 323.947 72.52C323.947 74.2 323.574 75.2267 322.827 75.6C322.427 75.7867 322.067 75.9067 321.747 75.96C321.454 75.9867 321.014 76 320.427 76C317.654 76 315.547 75.3733 314.107 74.12C312.667 72.8667 311.947 70.7467 311.947 67.76V61.84C311.44 61.92 310.894 61.96 310.307 61.96C309.72 61.96 309.227 61.7333 308.827 61.28C308.454 60.8267 308.267 60.0533 308.267 58.96C308.267 57.8667 308.334 57.08 308.467 56.6C308.6 56.0933 308.787 55.7333 309.027 55.52C309.454 55.1733 309.987 55 310.627 55L311.947 55.16V51.04C311.947 50.4267 311.96 49.9733 311.987 49.68C312.04 49.3867 312.174 49.0667 312.387 48.72C312.734 48.0533 313.76 47.72 315.467 47.72C317.28 47.72 318.36 48.2133 318.707 49.2C318.84 49.6267 318.907 50.3067 318.907 51.24V55.16C320.08 55.0533 320.96 55 321.547 55C322.16 55 322.614 55.0267 322.907 55.08C323.227 55.1067 323.587 55.2267 323.987 55.44C324.68 55.7867 325.027 56.8133 325.027 58.52C325.027 60.2 324.667 61.2267 323.947 61.6C323.547 61.7867 323.187 61.9067 322.867 61.96C322.574 61.9867 322.12 62 321.507 62ZM338.916 55C341.582 55 343.796 56.0133 345.556 58.04C347.342 60.0667 348.236 62.5467 348.236 65.48V72.52C348.236 73.1333 348.209 73.6 348.156 73.92C348.129 74.2133 348.009 74.56 347.796 74.96C347.449 75.6533 346.422 76 344.716 76C343.089 76 342.076 75.6533 341.676 74.96C341.462 74.56 341.329 74.2 341.276 73.88C341.249 73.56 341.236 73.08 341.236 72.44V65.44C341.236 64.3467 340.929 63.4933 340.316 62.88C339.702 62.2667 338.916 61.96 337.956 61.96C337.022 61.96 336.196 62.2533 335.476 62.84C334.756 63.4 334.342 64.04 334.236 64.76V72.52C334.236 73.1333 334.209 73.6 334.156 73.92C334.129 74.2133 334.009 74.56 333.796 74.96C333.449 75.6533 332.422 76 330.716 76C329.036 76 328.009 75.64 327.636 74.92C327.449 74.52 327.329 74.1733 327.276 73.88C327.249 73.5867 327.236 73.12 327.236 72.48V48.56C327.236 47.9467 327.249 47.4933 327.276 47.2C327.329 46.88 327.449 46.5333 327.636 46.16C328.009 45.44 329.049 45.08 330.756 45.08C332.436 45.08 333.449 45.44 333.796 46.16C334.009 46.56 334.129 46.92 334.156 47.24C334.209 47.5333 334.236 47.9867 334.236 48.6V57.44C335.569 55.8133 337.129 55 338.916 55ZM371.774 62.96C371.774 64.5867 371.361 65.8 370.534 66.6C369.734 67.3733 368.841 67.76 367.854 67.76H358.374C358.374 68.5067 358.814 69.1333 359.694 69.64C360.574 70.1467 361.454 70.4 362.334 70.4C363.881 70.4 365.094 70.24 365.974 69.92L366.414 69.76C367.054 69.4667 367.588 69.32 368.014 69.32C368.868 69.32 369.601 69.92 370.214 71.12C370.561 71.84 370.734 72.4533 370.734 72.96C370.734 75.3333 367.894 76.52 362.214 76.52C360.241 76.52 358.481 76.1867 356.934 75.52C355.414 74.8267 354.228 73.92 353.374 72.8C351.694 70.64 350.854 68.2267 350.854 65.56C350.854 62.2 351.934 59.52 354.094 57.52C356.281 55.4933 359.001 54.48 362.254 54.48C365.961 54.48 368.681 55.7867 370.414 58.4C371.321 59.7867 371.774 61.3067 371.774 62.96ZM363.334 64.12C364.348 64.12 364.854 63.6933 364.854 62.84C364.854 62.2267 364.614 61.7333 364.134 61.36C363.681 60.9867 363.014 60.8 362.134 60.8C361.281 60.8 360.428 61.16 359.574 61.88C358.721 62.5733 358.294 63.32 358.294 64.12H363.334ZM383.901 65.48C383.901 62.28 385.021 59.64 387.261 57.56C389.501 55.48 392.061 54.44 394.941 54.44C397.821 54.44 400.368 55.48 402.581 57.56C404.795 59.6133 405.901 62.24 405.901 65.44C405.901 67.6533 405.328 69.6267 404.181 71.36C403.035 73.0667 401.635 74.3333 399.981 75.16C398.355 75.96 396.661 76.36 394.901 76.36C393.141 76.36 391.435 75.9333 389.781 75.08C388.128 74.2 386.728 72.92 385.581 71.24C384.461 69.5333 383.901 67.6133 383.901 65.48ZM392.261 68.36C393.115 69 393.981 69.32 394.861 69.32C395.741 69.32 396.621 68.9867 397.501 68.32C398.381 67.6533 398.821 66.6667 398.821 65.36C398.821 64.0533 398.408 63.08 397.581 62.44C396.755 61.8 395.861 61.48 394.901 61.48C393.941 61.48 393.048 61.8133 392.221 62.48C391.395 63.1467 390.981 64.1333 390.981 65.44C390.981 66.72 391.408 67.6933 392.261 68.36ZM420.206 54.92C422.872 54.92 425.086 55.9467 426.846 58C428.632 60.0267 429.526 62.5067 429.526 65.44V72.48C429.526 73.0933 429.499 73.56 429.446 73.88C429.419 74.1733 429.312 74.5067 429.126 74.88C428.752 75.6 427.712 75.96 426.006 75.96C424.112 75.96 423.019 75.4667 422.726 74.48C422.566 74.0267 422.486 73.3467 422.486 72.44V65.4C422.486 64.3067 422.166 63.4533 421.526 62.84C420.912 62.2267 420.072 61.92 419.006 61.92C417.966 61.92 417.112 62.24 416.446 62.88C415.806 63.52 415.486 64.36 415.486 65.4V72.48C415.486 73.0933 415.459 73.56 415.406 73.88C415.379 74.1733 415.259 74.5067 415.046 74.88C414.699 75.6 413.672 75.96 411.966 75.96C410.286 75.96 409.259 75.6 408.886 74.88C408.699 74.48 408.579 74.1333 408.526 73.84C408.499 73.52 408.486 73.0533 408.486 72.44V58.28C408.486 57.6933 408.499 57.2533 408.526 56.96C408.579 56.64 408.712 56.2933 408.926 55.92C409.299 55.2533 410.326 54.92 412.006 54.92C413.632 54.92 414.632 55.2267 415.006 55.84C415.272 56.2933 415.406 56.84 415.406 57.48C415.512 57.2933 415.752 57.0267 416.126 56.68C416.499 56.3333 416.859 56.0533 417.206 55.84C418.112 55.2267 419.112 54.92 420.206 54.92ZM432.744 48.52C432.744 47.9067 432.757 47.4533 432.784 47.16C432.837 46.84 432.957 46.48 433.144 46.08C433.517 45.36 434.557 45 436.264 45C437.89 45 438.904 45.36 439.304 46.08C439.517 46.48 439.637 46.84 439.664 47.16C439.717 47.48 439.744 47.9467 439.744 48.56V67.08C439.744 68.04 439.824 68.6533 439.984 68.92C440.144 69.16 440.49 69.28 441.024 69.28C441.584 69.28 441.957 69.3067 442.144 69.36C442.33 69.3867 442.557 69.4933 442.824 69.68C443.357 70.0267 443.624 70.9733 443.624 72.52C443.624 74.2 443.357 75.2267 442.824 75.6C442.13 76.08 440.477 76.16 437.864 75.84C435.81 75.5733 434.477 74.8933 433.864 73.8C433.117 72.4933 432.744 70.4133 432.744 67.56V48.52ZM445.829 58.44C445.829 57.8267 445.843 57.3733 445.869 57.08C445.923 56.76 446.043 56.4 446.229 56C446.603 55.3067 447.643 54.96 449.349 54.96C450.629 54.96 451.536 55.1867 452.069 55.64C452.523 56.0133 452.763 56.5867 452.789 57.36C452.816 57.6267 452.829 58.0133 452.829 58.52V72.52C452.829 73.1333 452.803 73.6 452.749 73.92C452.723 74.2133 452.603 74.56 452.389 74.96C452.043 75.6533 451.016 76 449.309 76C447.629 76 446.603 75.64 446.229 74.92C446.043 74.52 445.923 74.1733 445.869 73.88C445.843 73.5867 445.829 73.12 445.829 72.48V58.44ZM452.389 51.04C452.203 51.4133 451.856 51.68 451.349 51.84C450.843 52 450.163 52.08 449.309 52.08C448.483 52.08 447.816 52 447.309 51.84C446.803 51.68 446.443 51.4 446.229 51C446.043 50.6 445.923 50.2533 445.869 49.96C445.843 49.64 445.829 49.1733 445.829 48.56C445.829 47.9467 445.843 47.4933 445.869 47.2C445.923 46.88 446.043 46.5333 446.229 46.16C446.603 45.44 447.643 45.08 449.349 45.08C451.029 45.08 452.043 45.44 452.389 46.16C452.603 46.56 452.723 46.92 452.749 47.24C452.803 47.5333 452.829 47.9867 452.829 48.6C452.829 49.2133 452.803 49.68 452.749 50C452.723 50.2933 452.603 50.64 452.389 51.04ZM467.745 54.92C470.411 54.92 472.625 55.9467 474.385 58C476.171 60.0267 477.065 62.5067 477.065 65.44V72.48C477.065 73.0933 477.038 73.56 476.985 73.88C476.958 74.1733 476.851 74.5067 476.665 74.88C476.291 75.6 475.251 75.96 473.545 75.96C471.651 75.96 470.558 75.4667 470.265 74.48C470.105 74.0267 470.025 73.3467 470.025 72.44V65.4C470.025 64.3067 469.705 63.4533 469.065 62.84C468.451 62.2267 467.611 61.92 466.545 61.92C465.505 61.92 464.651 62.24 463.985 62.88C463.345 63.52 463.025 64.36 463.025 65.4V72.48C463.025 73.0933 462.998 73.56 462.945 73.88C462.918 74.1733 462.798 74.5067 462.585 74.88C462.238 75.6 461.211 75.96 459.505 75.96C457.825 75.96 456.798 75.6 456.425 74.88C456.238 74.48 456.118 74.1333 456.065 73.84C456.038 73.52 456.025 73.0533 456.025 72.44V58.28C456.025 57.6933 456.038 57.2533 456.065 56.96C456.118 56.64 456.251 56.2933 456.465 55.92C456.838 55.2533 457.865 54.92 459.545 54.92C461.171 54.92 462.171 55.2267 462.545 55.84C462.811 56.2933 462.945 56.84 462.945 57.48C463.051 57.2933 463.291 57.0267 463.665 56.68C464.038 56.3333 464.398 56.0533 464.745 55.84C465.651 55.2267 466.651 54.92 467.745 54.92ZM500.603 62.96C500.603 64.5867 500.189 65.8 499.363 66.6C498.563 67.3733 497.669 67.76 496.683 67.76H487.203C487.203 68.5067 487.643 69.1333 488.523 69.64C489.403 70.1467 490.283 70.4 491.163 70.4C492.709 70.4 493.923 70.24 494.803 69.92L495.243 69.76C495.883 69.4667 496.416 69.32 496.843 69.32C497.696 69.32 498.429 69.92 499.043 71.12C499.389 71.84 499.563 72.4533 499.563 72.96C499.563 75.3333 496.723 76.52 491.043 76.52C489.069 76.52 487.309 76.1867 485.763 75.52C484.243 74.8267 483.056 73.92 482.203 72.8C480.523 70.64 479.683 68.2267 479.683 65.56C479.683 62.2 480.763 59.52 482.923 57.52C485.109 55.4933 487.829 54.48 491.083 54.48C494.789 54.48 497.509 55.7867 499.243 58.4C500.149 59.7867 500.603 61.3067 500.603 62.96ZM492.163 64.12C493.176 64.12 493.683 63.6933 493.683 62.84C493.683 62.2267 493.443 61.7333 492.963 61.36C492.509 60.9867 491.843 60.8 490.963 60.8C490.109 60.8 489.256 61.16 488.403 61.88C487.549 62.5733 487.123 63.32 487.123 64.12H492.163Z" fill="#111111"/>
</svg>
