<svg width="70" height="54" viewBox="0 0 70 54" fill="none" xmlns="http://www.w3.org/2000/svg">
<g clip-path="url(#clip0_685_2)">
<path fill-rule="evenodd" clip-rule="evenodd" d="M39.3993 30.6775C39.2962 30.7031 39.208 30.7395 39.1392 30.7846C38.577 31.1048 38.3448 31.4873 38.4499 31.9222C38.5383 32.2908 38.788 32.4797 39.1915 32.4841H39.1996L39.207 32.4813C39.415 32.402 39.5421 32.3278 39.5954 32.2555C39.9404 31.9642 40.0629 31.5993 39.9579 31.1652C39.8208 30.7858 39.6303 30.6205 39.3993 30.6775Z" fill="#4285F4"/>
<path fill-rule="evenodd" clip-rule="evenodd" d="M64.1371 31.0548C63.0687 31.318 61.7616 31.7042 60.884 30.898C60.9004 30.774 60.9143 30.6516 60.9239 30.5326C60.9323 30.5049 60.9414 30.4786 60.9465 30.4472C61.0606 29.7415 61.0736 29.0083 60.5718 28.4566C60.1343 27.975 59.4253 28.2685 59.2286 28.7991C58.9159 29.6452 59.2202 30.636 59.8003 31.3659C59.6948 31.8349 59.5299 32.3766 59.3052 32.9894C58.7944 34.134 58.1507 34.8098 57.3927 34.9971L57.3683 35.0033C57.253 35.0312 57.1407 35.046 57.0343 35.046C56.7907 35.046 56.5664 34.9701 56.3674 34.8202L56.3567 34.8121L56.343 34.8117C56.2396 34.8089 55.9172 34.5119 54.9174 32.5539C54.4557 31.6274 53.8813 31.2391 53.2156 31.4034L53.1173 31.4278C52.5353 31.5716 52.0729 32.1061 51.7425 33.0193C51.5646 33.5892 51.4228 34.0257 51.3207 34.322C51.2762 33.4718 51.2609 32.8072 51.2753 32.3438L51.2381 32.1859V32.1838L51.2369 32.1803L51.212 32.0746L51.2069 32.0623C51.1967 32.0455 51.1825 32.0311 51.1704 32.0156C51.1032 31.8957 51.0011 31.8093 50.8617 31.7604L50.8497 31.7563L50.7514 31.7806C50.597 31.819 50.4359 31.9481 50.2569 32.1792C49.0831 34.0391 47.8457 35.1408 46.5796 35.4535L46.2104 35.5447C46.1575 35.5579 46.1316 35.548 46.1235 35.5194C46.1052 35.1539 46.0602 34.8205 45.9896 34.5282C45.9325 34.2909 45.8366 34.0598 45.7047 33.8414C45.3418 33.2599 44.8117 33.0478 44.1371 33.2154C43.8859 33.2773 43.5954 33.4335 43.2731 33.68L43.2646 33.6888L43.2401 33.726L43.0737 33.7669L43.0658 33.788C42.9736 34.0292 42.8823 34.2555 42.7915 34.4735C42.714 34.6291 42.6459 34.7863 42.5878 34.9445C42.52 35.0951 42.4526 35.2407 42.3862 35.3763C42.2062 35.5773 42.112 35.7476 42.0981 35.896C41.1263 37.7543 40.2593 38.7892 39.5217 38.9714C39.2708 39.0329 39.1289 38.9708 39.0803 38.7695C39.0167 38.505 38.9941 38.2059 39.0038 37.8817C39.0746 37.54 39.1284 37.2066 39.166 36.8827C39.2525 36.5716 39.3015 36.0903 39.3141 35.4199L39.3143 35.4142L39.2603 35.1905C39.1905 34.9003 39.0052 34.7509 38.7099 34.7468L38.7044 34.7465L38.6532 34.7591C38.431 34.8283 38.3574 34.8733 38.3683 34.9352C38.3337 35.0532 38.2724 35.4793 38.0643 37.0757C38.0546 37.3432 38.052 37.5871 38.0553 37.8119C38.0185 37.9689 37.9786 38.1258 37.9329 38.2819C37.6015 39.0048 37.2455 39.4177 36.8752 39.5096L36.7273 39.5457C36.6322 39.5691 36.5405 39.5668 36.4462 39.5377C36.1622 39.4653 35.8003 39.0905 35.3718 38.4253C34.7382 37.3315 34.1679 36.8 33.6279 36.8C33.5641 36.8 33.5002 36.8076 33.4379 36.8231C32.9906 36.9332 32.6256 37.3719 32.3513 38.1353C32.2807 38.6391 32.2097 39.0244 32.1394 39.2848C32.0178 38.5593 31.9611 38.0527 31.9704 37.7784L31.9706 37.7725L31.9692 37.7666C31.9406 37.6481 32.0553 37.0867 32.7625 35.0848C33.3351 33.4176 33.73 32.0876 33.9369 31.1309C34.533 28.1393 34.7088 26.0973 34.4592 25.0617C34.3686 24.6857 34.1503 24.4952 33.8105 24.4952C33.779 24.4952 33.7462 24.4965 33.7065 24.5011L33.6512 24.5149C33.4226 24.5713 33.2003 24.7952 32.9892 25.182C32.7788 25.6252 32.527 26.3982 32.2422 27.4773C31.8343 28.754 31.4385 31.6555 31.0655 36.0983C31.0363 36.2992 31.0206 36.517 31.0108 36.7426C30.3867 37.0801 29.8608 37.4083 29.4561 37.7205C28.4659 38.6036 28.1619 38.8684 28.0952 38.922L27.7676 38.8161L27.7737 38.8414C27.6892 38.758 27.5627 38.6424 27.3928 38.4933C27.6922 37.4919 27.7713 36.6831 27.6279 36.0886C27.4261 35.2507 26.9285 34.8259 26.149 34.8259C26.0795 34.8259 26.0068 34.8292 25.9267 34.8371C25.5528 34.9295 25.2719 35.2448 25.0911 35.7783C24.9853 36.2294 24.9641 36.6547 25.028 37.0455L25.0265 37.0435L25.0314 37.0666C25.0412 37.1227 25.0526 37.1785 25.0659 37.2336L25.0689 37.2425C25.0743 37.2678 25.081 37.2962 25.0897 37.3312C25.2266 37.7047 25.5244 38.1317 25.9764 38.6057C25.4486 39.4953 24.8845 40.0249 24.2926 40.1711C23.5395 40.3572 22.8994 40.0387 22.3893 39.2331C21.9669 38.2283 21.7203 37.6763 21.6349 37.5451C21.3668 37.1391 21.0377 36.9329 20.6565 36.9329C20.5673 36.9329 20.4739 36.9446 20.3806 36.9664L20.0422 37.0335C19.3153 37.2295 18.7482 37.7334 18.3556 38.5327C18.1585 38.9966 18.0247 39.4465 17.947 39.8829C17.3398 40.4191 16.7759 40.7551 16.2711 40.8795L16.1482 40.9098C15.9661 40.9549 15.7979 40.9855 15.649 41.0007C14.6978 41.078 14.3683 41.1084 14.2495 41.1263C14.2526 40.9875 14.3698 40.6023 14.8458 39.5988C15.6628 37.1206 15.9505 35.3384 15.7003 34.3013C15.5084 33.5053 15.167 33.1581 14.6983 33.2735L14.6735 33.2797C14.1891 33.3993 13.7812 33.932 13.4606 34.8633C13.1068 35.9112 12.8505 36.9912 12.699 38.074C12.5545 39.2167 12.4762 40.2606 12.4623 41.1944C10.3545 42.9371 7.83991 44.2179 5.41299 45.4149C4.59983 45.8158 3.77766 46.1986 2.9489 46.5657C1.63644 47.1473 1.16593 45.5391 1.12546 44.5007C1.04706 42.4952 2.45726 41.2863 3.82158 40.1455C5.31092 38.9004 6.84627 37.7108 8.38132 36.524C16.2102 30.4722 24.1739 24.5636 32.2738 18.8854C35.8026 19.9018 39.487 20.5683 43.0126 21.2937C43.7162 21.4381 44.016 20.3482 43.3098 20.2029C41.0973 19.7479 38.8926 19.25 36.6952 18.7258C35.6696 18.481 34.6034 18.2513 33.5343 17.9988C34.3871 17.3958 35.2286 16.7759 36.0235 16.1136C36.296 16.1422 36.5684 16.1711 36.8394 16.2025C43.78 17.0062 50.6039 19.1059 57.0902 21.6766C59.7222 22.7197 62.318 23.8795 64.8183 25.2161C65.5959 25.6322 66.3649 26.0719 67.0941 26.5711C67.2955 26.7095 67.4877 26.8568 67.6623 27.0283L67.6917 27.0564C67.6533 27.0242 67.5955 26.9889 67.7681 27.2334C69.4543 29.6196 65.7713 30.6522 64.1371 31.0548ZM13.4119 40.3869C13.4345 39.0743 13.6009 37.7334 13.9065 36.4013C14.3427 34.8495 14.605 34.377 14.7524 34.2655C14.7615 34.3135 14.7812 34.392 14.8194 34.527L14.8553 34.6755C14.9125 34.9131 14.906 35.3006 14.8362 35.8294C14.7699 36.4999 14.5981 37.2366 14.3259 38.019C13.8983 39.2332 13.5916 40.0278 13.4119 40.3869ZM13.3801 42.4286C13.3979 42.4286 13.4113 42.4289 13.4213 42.4292C13.9202 42.9617 14.3298 43.4575 14.6356 43.8973C15.0866 44.857 15.4713 45.9899 15.7787 47.2647C16.0561 48.4155 16.2306 49.7836 16.2973 51.3277C16.2558 52.3141 16.092 52.8493 15.8105 52.9187L15.7369 52.9369C15.6956 52.947 15.6105 52.9294 15.4951 52.8849C14.9622 52.4168 14.5816 51.7213 14.3639 50.8179L14.206 50.1634C13.6706 47.9421 13.3954 45.574 13.3877 43.1215C13.3464 42.5932 13.3675 42.4614 13.3801 42.4286ZM18.7999 41.1834C18.7242 40.8699 18.7392 40.5124 18.8452 40.1169C19.0618 38.9141 19.5995 38.2095 20.4419 38.0229C20.6363 37.9876 20.7346 37.9632 20.7862 37.9456L20.8175 38.0759C20.8611 38.2571 20.8611 38.6357 20.8175 39.1997C20.6003 40.9054 20.2059 41.8409 19.645 41.9792L19.5295 42.0079C19.1607 41.9601 18.9219 41.6902 18.7999 41.1834ZM26.5659 37.7868C26.2351 37.4599 26.0327 37.1492 25.9636 36.863L25.948 36.8017C25.9329 36.2919 26.0194 36.0101 26.1956 35.9656L26.2216 35.9653C26.501 35.9653 26.6594 36.0586 26.7059 36.2505C26.7885 36.5931 26.7413 37.1098 26.5659 37.7868ZM27.2247 44.3641L27.1683 44.1302C27.0641 43.6984 27.0784 43.2667 27.211 42.8459C27.5369 41.7627 27.8661 41.0398 28.1897 40.6953C28.2418 40.7002 28.392 40.8121 28.7195 41.6829C28.8711 42.312 28.8904 42.8388 28.7789 43.2424C28.4216 44.0374 28.007 44.4984 27.5466 44.612C27.4095 44.6449 27.3029 44.5609 27.2247 44.3641ZM32.5276 30.6754C32.4912 30.5238 32.579 29.8421 33.2061 27.4579C33.4599 26.5444 33.5828 26.1563 33.6422 25.9966C33.6534 26.6027 33.6139 27.2851 33.5245 28.0269C33.3235 29.7178 33.0053 31.2386 32.5775 32.55C32.4253 33.1529 32.2996 33.614 32.2023 33.9265C32.2507 33.1519 32.3601 32.0659 32.5286 30.6911L32.5295 30.6832L32.5276 30.6754ZM43.4823 35.526C43.7283 35.9206 44.026 36.2074 44.3781 36.368C44.8336 36.5184 44.9646 36.5699 45.0014 36.5875L45.0086 36.6555C44.7768 37.4658 44.4613 37.9255 44.0705 38.0217C43.9893 38.0417 43.9301 38.0448 43.8769 38.0255C43.5891 37.9515 43.3902 37.6939 43.2861 37.2648C43.2245 36.829 43.2103 36.7394 43.2062 36.7177C43.2223 36.4301 43.2407 36.2036 43.2601 36.0186C43.348 35.8532 43.4218 35.6891 43.4823 35.526ZM44.5473 34.2434C44.5821 34.2349 44.6157 34.2308 44.647 34.2308C44.8525 34.2308 45.0029 34.4219 45.0926 34.7942C45.1532 35.3284 45.1674 35.5109 45.1688 35.5699C45.1202 35.5784 45.0261 35.557 44.8961 35.5053C44.5138 35.3563 44.2915 35.1624 44.2351 34.9288C44.1516 34.5815 44.2553 34.3567 44.5473 34.2434ZM27.6832 16.0464C27.6655 16.0373 27.6466 16.0266 27.6285 16.0173C27.9456 15.9538 28.3045 15.9532 28.5595 15.9313C30.5103 15.7649 32.4924 15.8145 34.4556 15.9695C33.6794 16.5464 32.8771 17.0911 32.0906 17.6399C30.5565 17.2335 29.0504 16.7418 27.6832 16.0464ZM69.0006 27.1761C68.9247 26.9971 68.8415 26.8241 68.7333 26.6624C69.0283 27.1031 68.7481 26.6288 68.6683 26.4956C68.4386 26.1141 68.0105 25.843 67.6583 25.5946C66.1402 24.5247 64.4218 23.7129 62.7545 22.9164C57.0782 20.2058 51.0861 18.0937 44.9933 16.5805C42.4748 15.955 39.851 15.405 37.2027 15.0547C38.6679 13.6324 39.8672 11.9834 40.4938 9.88559C41.3961 6.86372 40.4572 2.74424 37.6698 1.04643C34.9822 -0.590558 30.9153 0.15088 28.4178 1.81183C26.1904 3.2935 24.5687 8.88917 28.4445 9.14855C29.1643 9.19664 29.1598 8.06537 28.4445 8.01744C26.2769 7.87258 27.435 4.4771 28.2402 3.45747C28.9843 2.51565 30.2712 2.03011 31.3718 1.69989C33.9258 0.933728 37.238 1.11272 38.6868 3.6894C40.1955 6.37271 39.8795 9.4319 38.3256 12.0034C37.6494 13.1223 36.777 14.0548 35.8114 14.8901C33.2103 14.6205 30.5986 14.5648 28.0512 14.8501C27.3558 14.9281 26.2486 15.0338 26.167 15.9312C26.0985 16.6834 27.2659 17.1105 27.7797 17.3261C28.799 17.7541 29.8469 18.13 30.9119 18.4708C22.8667 24.139 14.9459 30.0176 7.16689 36.0512C4.144 38.3956 -1.34418 41.4676 0.301496 46.1571C1.16398 48.6136 3.26203 47.6768 4.93589 46.8918C7.5118 45.6843 10.1739 44.3663 12.4727 42.624C12.4239 45.2177 12.7024 47.8045 13.3086 50.3187C13.5486 51.3148 13.7619 52.0074 13.9431 52.3783C14.5058 53.4545 15.109 54 15.7354 54C15.8264 54 15.9191 53.9887 16.011 53.9655C16.6245 53.8143 17.0307 53.1965 17.2192 52.1235C17.2725 50.4399 17.0756 48.6564 16.6332 46.8225C16.3081 45.4733 15.7965 44.209 15.1097 43.0592C14.6614 42.467 14.4769 42.2355 14.3967 42.1442C15.477 42.0731 16.1005 42.0183 16.25 41.9812L16.7863 41.8483C17.2422 41.6453 17.6144 41.4527 17.9069 41.2685C17.9202 41.3658 17.9347 41.4625 17.9548 41.5577C17.998 41.7368 18.077 41.9354 18.1918 42.1504C18.6025 42.7623 19.0494 43.073 19.5197 43.073C19.6103 43.073 19.7035 43.0615 19.796 43.0384L19.8209 43.0322C20.5631 42.849 21.1258 42.1389 21.4949 40.916C21.6022 40.3094 21.6441 40.0528 21.6572 39.9401C22.4537 41.0768 23.4205 41.5153 24.5251 41.2432L24.6236 41.2188C24.7256 41.1935 24.8653 41.148 25.0464 41.0795C25.8004 40.6119 26.3784 40.019 26.7654 39.3214C27.2695 39.7318 27.3566 39.8325 27.3659 39.8535L27.3735 39.8843C27.3761 39.8953 27.3791 39.9414 27.3074 40.0766C26.3261 41.868 25.9651 43.3425 26.2345 44.4602C26.3797 45.0623 26.7808 45.4626 27.4269 45.6504C27.435 45.6789 27.4637 45.6937 27.4741 45.6987L27.5567 45.7416L27.5334 45.6448C27.5706 45.6354 27.6477 45.6224 27.8064 45.6105L27.8205 45.6072L27.8388 45.5993L27.8682 45.7216L28.1212 45.4645C28.8122 45.1056 29.2443 44.7123 29.4058 44.2945C29.7156 43.8953 29.853 43.0851 29.8141 41.8859C29.8183 41.873 29.8214 41.855 29.8243 41.8299L29.8312 41.7683L29.8103 41.7738L29.8076 41.6958L29.7707 41.7768C29.7637 41.7436 29.7553 41.6967 29.7448 41.6309L29.8324 41.6094L29.701 41.4149L29.5982 41.1578L28.8945 39.8057C29.3458 39.1827 30.0699 38.5688 31.0424 37.9782C31.1114 38.7883 31.2668 39.7057 31.514 40.7305C31.6201 41.0971 31.7457 41.4726 31.8869 41.8445C32.0975 42.5476 32.3495 42.8895 32.6574 42.8895C32.691 42.8895 32.7254 42.8855 32.7599 42.8767L32.7749 42.8697C32.89 42.7843 32.9876 42.6674 33.0652 42.5222L33.0715 42.511L32.9185 40.8732C33.0216 38.5399 33.3442 37.9756 33.5965 37.9133L33.6136 37.9083C33.6146 37.9083 33.6245 37.9093 33.6584 37.9234L33.6705 37.9284L33.6838 37.9249C33.7122 37.9249 33.8486 37.9847 34.4129 38.7448C35.2235 40.1817 36.0887 40.8007 36.977 40.5803C37.562 40.4359 38.0336 40.0919 38.3917 39.5606C38.6125 39.9586 38.9321 40.1635 39.3512 40.1635C39.4735 40.1635 39.606 40.1461 39.7448 40.1118C40.6245 39.8946 41.5318 38.9952 42.4467 37.4424L42.4484 37.4511L42.4859 37.6069C42.5274 37.779 42.5776 37.9409 42.637 38.0932C42.9882 38.7413 43.4026 39.0703 43.8691 39.0703C43.9545 39.0703 44.0432 39.0591 44.1324 39.0369L44.3537 38.982C45.0054 38.8216 45.5061 38.2632 45.843 37.3183C45.982 36.7394 46.0677 36.6758 46.0905 36.6702C46.15 36.6555 46.2369 36.6449 46.3567 36.6376C47.9027 36.2559 49.2447 35.3199 50.3513 33.8642C50.3575 34.8835 50.3974 36.0439 50.4708 37.337L50.4738 37.3504C50.6029 37.671 50.7686 37.8335 50.9665 37.8335C50.9971 37.8335 51.029 37.8295 51.0608 37.8216L51.1101 37.8095C51.2314 37.7793 51.3448 37.6463 51.4592 37.3951C52.0262 35.339 52.392 34.0943 52.5473 33.6925C52.7757 32.9539 53.0679 32.5362 53.4156 32.4503L53.5279 32.4227C53.61 32.4128 53.6967 32.4465 53.7836 32.5166C53.8798 32.6335 54.2812 33.3568 54.977 34.6676C55.6513 35.842 56.5262 36.3078 57.5684 36.0501C57.9251 35.9618 58.3754 35.7132 58.8999 35.3152C59.2805 35.1248 59.6945 34.5449 60.1666 33.5397C60.3601 33.0378 60.5156 32.5609 60.6374 32.1074C60.7598 32.1797 60.8845 32.2433 61.0125 32.2912C62.7234 32.9304 64.7718 32.0623 66.4564 31.6474C68.3902 31.1705 69.813 29.0903 69.0006 27.1761Z" fill="#8DADBF"/>
</g>
<defs>
<clipPath id="clip0_685_2">
<rect width="70" height="54" fill="white"/>
</clipPath>
</defs>
</svg>
