<svg width="1042" height="259" viewBox="0 0 1042 259" fill="none" xmlns="http://www.w3.org/2000/svg">
<path d="M67.3989 212.191C72.0858 216.165 79.9821 218.152 91.0879 218.152C106.779 218.152 117.273 212.905 122.571 202.41C126.035 195.686 127.768 184.376 127.768 168.481V157.783C123.59 164.915 119.107 170.264 114.318 173.831C105.658 180.453 94.3993 183.765 80.5425 183.765C59.146 183.765 42.0288 176.276 29.1909 161.298C16.4549 146.219 10.0869 125.841 10.0869 100.166C10.0869 75.4067 16.2511 54.6216 28.5796 37.8101C40.908 20.8966 58.3818 12.4399 81.001 12.4399C89.3558 12.4399 96.6408 13.7135 102.856 16.2607C113.452 20.6419 122.011 28.6911 128.532 40.4082V16.4136H170.866V174.442C170.866 195.94 167.249 212.14 160.015 223.042C147.585 241.79 123.743 251.164 88.4897 251.164C67.1951 251.164 49.8232 246.986 36.374 238.631C22.9248 230.277 15.487 217.795 14.0605 201.188H61.4385C62.6611 206.282 64.6479 209.95 67.3989 212.191ZM60.063 126.147C65.9725 140.208 76.5688 147.238 91.8521 147.238C102.041 147.238 110.65 143.417 117.681 135.775C124.711 128.032 128.226 115.754 128.226 98.9429C128.226 83.1502 124.864 71.1274 118.139 62.8745C111.516 54.6216 102.601 50.4951 91.3936 50.4951C76.1104 50.4951 65.5649 57.6782 59.7573 72.0444C56.7007 79.686 55.1724 89.1107 55.1724 100.318C55.1724 109.998 56.8026 118.607 60.063 126.147ZM544.247 56.6084C526.722 56.6084 514.954 62.3141 508.943 73.7256C505.581 80.1445 503.899 90.0277 503.899 103.375V183H460.037V16.4136H501.607V45.4517C508.332 34.3459 514.19 26.7552 519.183 22.6797C527.334 15.8532 537.93 12.4399 550.972 12.4399C551.787 12.4399 552.449 12.4909 552.959 12.5928C553.57 12.5928 554.843 12.6437 556.779 12.7456V57.3726C554.028 57.0669 551.583 56.8631 549.443 56.7612C547.304 56.6593 545.572 56.6084 544.247 56.6084ZM663.077 56.6084C645.552 56.6084 633.784 62.3141 627.773 73.7256C624.411 80.1445 622.729 90.0277 622.729 103.375V183H578.867V16.4136H620.437V45.4517C627.161 34.3459 633.02 26.7552 638.013 22.6797C646.164 15.8532 656.76 12.4399 669.802 12.4399C670.617 12.4399 671.279 12.4909 671.788 12.5928C672.4 12.5928 673.673 12.6437 675.609 12.7456V57.3726C672.858 57.0669 670.413 56.8631 668.273 56.7612C666.134 56.6593 664.402 56.6084 663.077 56.6084ZM704.421 34.4478C715.934 19.7759 735.701 12.4399 763.72 12.4399C781.958 12.4399 798.158 16.057 812.321 23.291C826.483 30.5251 833.564 44.1781 833.564 64.25V140.666C833.564 145.964 833.666 152.383 833.87 159.923C834.176 165.629 835.042 169.5 836.468 171.538C837.894 173.576 840.034 175.257 842.887 176.582V183H795.509C794.184 179.638 793.267 176.48 792.758 173.525C792.249 170.57 791.841 167.208 791.535 163.438C785.524 169.959 778.596 175.512 770.75 180.097C761.377 185.497 750.78 188.197 738.961 188.197C723.882 188.197 711.4 183.917 701.517 175.359C691.736 166.698 686.845 154.472 686.845 138.679C686.845 118.2 694.742 103.375 710.534 94.2051C719.195 89.2126 731.931 85.6465 748.742 83.5068L763.567 81.6729C771.616 80.654 777.373 79.3804 780.837 77.8521C787.052 75.203 790.16 71.0765 790.16 65.4727C790.16 58.6462 787.766 53.9593 782.977 51.4121C778.29 48.763 771.362 47.4385 762.192 47.4385C751.901 47.4385 744.616 49.9857 740.337 55.0801C737.28 58.8499 735.242 63.9443 734.223 70.3633H692.195C693.112 55.7933 697.187 43.8215 704.421 34.4478ZM736.822 151.517C740.897 154.879 745.89 156.561 751.799 156.561C761.173 156.561 769.782 153.81 777.628 148.308C785.575 142.806 789.701 132.77 790.007 118.2V102C787.256 103.732 784.454 105.158 781.601 106.279C778.85 107.298 775.03 108.266 770.139 109.183L760.358 111.017C751.188 112.647 744.616 114.634 740.642 116.977C733.918 120.951 730.555 127.115 730.555 135.47C730.555 142.908 732.644 148.257 736.822 151.517ZM984.03 24.0552C997.072 32.41 1004.56 46.7762 1006.5 67.1538H962.94C962.328 61.55 960.749 57.1178 958.202 53.8574C953.413 47.9479 945.262 44.9932 933.749 44.9932C924.273 44.9932 917.498 46.4705 913.422 49.4253C909.448 52.38 907.462 55.8442 907.462 59.8179C907.462 64.8104 909.601 68.4274 913.881 70.6689C918.16 73.0124 933.29 77.0369 959.272 82.7427C976.593 86.8182 989.583 92.9824 998.244 101.235C1006.8 109.59 1011.08 120.034 1011.08 132.566C1011.08 149.072 1004.92 162.572 992.589 173.066C980.362 183.459 961.411 188.655 935.736 188.655C909.55 188.655 890.192 183.153 877.659 172.149C865.229 161.044 859.014 146.932 859.014 129.815H903.182C904.099 137.558 906.086 143.06 909.143 146.321C914.543 152.128 924.528 155.032 939.098 155.032C947.656 155.032 954.432 153.759 959.424 151.211C964.519 148.664 967.066 144.843 967.066 139.749C967.066 134.858 965.028 131.139 960.953 128.592C956.877 126.045 941.747 121.664 915.562 115.449C896.712 110.762 883.416 104.903 875.673 97.873C867.929 90.9447 864.057 80.9596 864.057 67.918C864.057 52.5329 870.069 39.3384 882.091 28.3345C894.216 17.2287 911.231 11.6758 933.137 11.6758C953.923 11.6758 970.887 15.8022 984.03 24.0552Z" fill="#111111"/>
<path d="M307.967 0.292468C304.039 1.1309 300.024 4.70529 299.362 7.88252C299.229 8.58857 299.053 9.69178 298.921 10.3978C298.656 11.6334 298.612 11.6334 294.155 12.163C252.851 17.1053 218.387 49.1424 210.267 90.0934C208.59 98.5219 208.237 103.861 208.237 120.454V135.325L204.619 146.931C201.088 158.183 201 158.625 201 162.905C201.044 166.435 201.221 167.847 202.015 169.877C203.383 173.363 206.604 177.511 209.561 179.497C214.591 182.939 219.799 183.733 228.757 182.366C266.795 176.673 326.677 175.482 372.394 179.453C383.25 180.424 391.855 181.351 398.65 182.366C410.3 184.087 417.096 182.057 422.347 175.173C425.436 171.069 426.363 168.244 426.407 162.905C426.407 158.625 426.319 158.183 422.788 146.931L419.17 135.325V120.454C419.17 112.246 418.949 103.332 418.729 100.684C415.993 71.1183 400.018 44.2883 375.262 27.7843C362.642 19.4 347.903 13.9281 333.252 12.163C328.486 11.5893 328.31 11.4569 328.266 8.89747C328.266 8.41206 327.869 7.2206 327.339 6.24978C324.956 1.7487 321.911 0.24834 314.807 0.0276988C312.159 -0.0605577 309.07 0.071827 307.967 0.292468ZM319.749 8.01491C320.234 8.36793 320.896 9.2505 321.117 10.0007L321.602 11.3245H313.703H305.805L306.29 10.0007C307.084 7.70601 308.055 7.35298 313.703 7.35298C317.498 7.35298 319.043 7.5295 319.749 8.01491ZM323.412 18.8704C343.931 21.3858 362.333 40.3609 371.6 68.4706C376.233 82.5475 378.131 96.4037 378.131 116.703V124.778L376.719 124.558C365.025 122.616 334.091 120.763 313.703 120.763C293.316 120.763 262.382 122.616 250.732 124.558L249.276 124.778V116.703C249.276 101.125 250.335 90.0493 252.807 79.282C258.72 53.4228 272.002 33.0797 289.036 23.7687C293.096 21.5181 299.362 19.4 303.377 18.8704C307.746 18.3409 319.043 18.2968 323.412 18.8704ZM271.473 28.1815C266.089 33.6975 265.251 34.7125 261.456 40.3609C256.028 48.5246 251.13 58.8506 248.261 68.2499C243.848 82.724 242.26 94.9034 242.216 113.79V125.572L239.921 126.014C238.641 126.279 235.685 126.808 233.39 127.161C231.095 127.558 226.153 128.573 222.402 129.412C218.651 130.25 215.474 130.912 215.386 130.912C214.989 130.912 215.695 101.125 216.18 97.8158C220.196 70.0592 235.067 46.8919 258.323 32.2854C263.133 29.2406 273.503 24.21 275.047 24.1217C275.268 24.1217 273.679 25.9751 271.473 28.1815ZM358.494 26.637C379.763 36.1246 397.238 54.5261 405.667 76.3254C408.226 82.9446 410.124 90.2699 411.227 97.8158C411.712 101.125 412.418 130.912 412.021 130.912C411.933 130.912 408.756 130.25 405.005 129.412C401.254 128.573 396.311 127.558 394.017 127.161C391.722 126.808 388.766 126.279 387.53 126.014L385.191 125.572V113.79C385.147 94.9034 383.558 82.724 379.146 68.2499C376.277 58.8506 371.379 48.5246 365.951 40.3609C362.156 34.7125 361.362 33.7417 355.89 28.1374C351.389 23.548 351.477 23.5039 358.494 26.637ZM342.828 128.706C352.978 129.279 368.29 130.691 377.027 131.839C385.985 133.03 395.032 134.486 395.473 134.884C395.826 135.192 403.681 160.169 403.504 160.39C403.416 160.478 398.341 159.948 392.163 159.198C366.304 156.109 345.696 155.006 313.703 155.006C281.711 155.006 261.103 156.109 235.243 159.198C229.066 159.948 223.991 160.478 223.903 160.39C223.726 160.169 231.581 135.192 231.934 134.884C232.375 134.486 241.554 132.986 250.6 131.795C263.971 130.074 280.21 128.794 298.921 128.088C305.716 127.823 334.267 128.22 342.828 128.706ZM219.887 148.607C217.592 155.889 216.048 161.537 216.048 162.817C215.959 164.758 216.092 165.111 217.68 166.523C219.357 168.068 219.401 168.068 222.535 167.847C224.256 167.715 229.551 167.097 234.273 166.479C256.866 163.567 283.211 162.111 313.703 162.111C344.196 162.111 370.541 163.567 393.134 166.479C397.856 167.097 403.151 167.715 404.872 167.847C408.005 168.068 408.05 168.068 409.726 166.523C411.315 165.111 411.447 164.758 411.359 162.817C411.359 161.537 409.815 155.889 407.52 148.607C405.446 141.988 403.725 136.472 403.725 136.428C403.725 136.34 405.755 136.825 408.226 137.443L412.771 138.634L415.993 149.005C419.435 160.081 419.876 162.949 418.817 166.7C417.934 169.612 415.375 172.746 412.551 174.334C410.3 175.614 409.815 175.702 405.931 175.702C403.637 175.702 397.679 175.128 392.693 174.511C369.482 171.422 345.564 170.098 313.703 170.098C281.843 170.098 257.925 171.422 234.714 174.511C229.727 175.128 223.77 175.702 221.475 175.702C217.592 175.702 217.107 175.614 214.856 174.334C212.032 172.746 209.473 169.612 208.59 166.7C207.531 162.949 207.972 160.081 211.414 149.005L214.636 138.634L219.048 137.487C221.475 136.869 223.505 136.384 223.594 136.428C223.638 136.472 221.961 141.944 219.887 148.607Z" fill="#111111"/>
<path d="M298.038 87.8432C289.168 91.9912 289.08 104.038 297.905 108.01C300.2 109.069 300.465 109.069 313.703 109.069C326.942 109.069 327.206 109.069 329.501 108.01C338.327 104.038 338.238 91.9912 329.369 87.8432C327.206 86.8282 326.898 86.7841 313.703 86.7841C300.509 86.7841 300.2 86.8282 298.038 87.8432ZM327.383 94.9478C328.883 96.3158 329.236 97.6396 328.53 99.3606C328.177 100.155 327.515 101.038 327.03 101.302C326.412 101.611 321.735 101.788 313.703 101.788C305.672 101.788 300.994 101.611 300.376 101.302C299.141 100.64 298.17 98.1251 298.655 96.8453C299.053 95.7421 300.244 94.5507 301.347 94.1535C301.7 94.0211 307.481 93.9329 314.189 93.977C325.706 94.0653 326.456 94.1094 327.383 94.9478Z" fill="#111111"/>
</svg>
